<?xml version="1.0" encoding="utf-8"?>
<!-- Generator: Adobe Illustrator 16.0.0, SVG Export Plug-In . SVG Version: 6.00 Build 0)  -->
<!DOCTYPE svg PUBLIC "-//W3C//DTD SVG 1.1//EN" "http://www.w3.org/Graphics/SVG/1.1/DTD/svg11.dtd">
<svg version="1.1" id="Layer_1" xmlns="http://www.w3.org/2000/svg" xmlns:xlink="http://www.w3.org/1999/xlink" x="0px" y="0px"
	 width="512px" height="512px" viewBox="0 0 512 512" enable-background="new 0 0 512 512" xml:space="preserve">
<title>icons</title>
<path fill="#FFFFFF" d="M230.624,444.539c-16.963-0.022-33.903-2.143-50.349-6.302l-0.157-0.043
	c-0.508-0.155-46.524-14.8-55.636-62.557h-6.664c-3.406-0.008-6.179-2.782-6.184-6.186c0-8.577,6.805-15.592,15.298-15.93
	c0.099-0.323,0.224-0.64,0.375-0.946c1.296-2.647,1.828-6.629,2.04-9.859c-9.909-2.832-16.648-9.75-19.041-19.593
	c-4.074-16.76-2.194-27.139,7.027-50.624c4.253-10.83,12.298-18.005,21.45-20.588c1.115-0.315,2.268-0.475,3.427-0.475
	s2.312,0.16,3.427,0.475c9.153,2.587,17.239,10.195,21.487,21.025c8.925,22.754,12.582,33.094,8.418,50.196
	c-2.387,9.809-9.13,16.717-19.049,19.562c0.209,3.239,0.74,7.234,2.04,9.888c0.15,0.307,0.274,0.622,0.373,0.945
	c8.492,0.339,15.295,7.354,15.295,15.927c-0.004,3.408-2.778,6.183-6.185,6.186h-5.344c6.874,11.353,17.373,20.159,29.8,24.939
	c6.718,2.557,13.797,3.854,21.036,3.854c13.053-0.001,26.426-4.217,39.75-12.532c9.591-5.915,17.453-14.204,22.847-24.059
	c-12.642-1.722-23.641-8.093-32.721-18.962c-7.099-8.497-11.093-17.576-12.745-21.903h-17.732c-6.728,0-11.703-2.196-14.788-6.525
	c-4.572-6.414-3.163-15.586-2.094-19.998c-1.082-1.085-1.983-2.323-2.687-3.691c-2.198-4.561-1.908-9.806,0.76-14.064
	c7.201-12.058,15.796-17.686,27.034-17.686c3.433,0,6.675,0.506,9.535,0.951c2.641,0.412,4.981,0.753,6.926,0.753
	c3.263,0,5.11-0.952,6.817-3.511c3.271-4.908,6.734-9.662,10.295-14.13c1.435-1.802,2.986-3.536,4.62-5.168l-5.602-10.262
	c-18.376,11.947-36.83,18.002-54.872,18.002c-3.182,0-6.397-0.19-9.557-0.564c-31.91-3.777-52.495-25.511-57.263-31.043
	c-10.472-0.522-19.249-8.281-21-18.677c-3.13-19.918,0.677-39.15,11.312-57.188c-1.618-3.97-2.611-8.145-2.955-12.423
	c-0.183-2.275-0.183-4.583,0-6.857c1.774-22.027,20.453-39.281,42.525-39.281c1.152,0,2.32,0.047,3.474,0.14
	c5.489,0.441,10.748,1.927,15.644,4.419c9.478-5.526,19.417-10.443,29.556-14.622c13.239-5.373,26.246-8.096,38.667-8.096
	c24.086,0,46.527,9.778,68.606,29.894c1.951,1.713,2.924,4.299,2.581,6.9c-0.484,4.316-4.521,9.585-12.321,16.048
	c19.223,7.888,36.904,18.8,52.589,32.46c3.871,3.374,7.587,6.909,11.046,10.505c3.206,3.317,6.396,6.924,9.479,10.718
	c5.202,6.461,9.925,13.386,14.039,20.587c1.286,2.247,2.444,4.408,3.539,6.606c2.511,4.934,4.771,10.08,6.71,15.285
	c0.366,0.979,0.79,2.122,1.171,3.273c3.597,10.37,6.101,21.173,7.437,32.091c0.152,1.093,0.274,2.26,0.395,3.428
	c0.288,2.595,0.519,5.411,0.705,8.599c0.276,5.03,0.303,10.064,0.08,14.969c0,0.104-0.006,0.289-0.021,0.468
	c-0.396,9.846-1.755,19.757-4.033,29.398c-0.57,2.436-1.219,4.921-1.926,7.385c-12.06,42.403-42.349,80.075-83.102,103.353
	c-28.896,16.432-61.744,25.118-94.985,25.118C231.243,444.54,230.624,444.539,230.624,444.539z M132.696,375.641
	c8.763,41.194,48.017,54.317,49.706,54.863c15.723,3.988,32.013,6.042,48.33,6.078c40.347,0,78.538-12.778,110.45-36.954
	c28.764-21.791,49.831-51.131,59.586-82.89c-15.667,8.713-35.31,13.126-58.458,13.126c-5.485,0-11.159-0.255-16.862-0.756
	l-0.1-0.009l-0.179-0.037c-0.081-0.01-0.225-0.037-0.363-0.072c-0.114-0.028-0.24-0.067-0.363-0.112
	c-0.127-0.046-0.257-0.101-0.383-0.163c-0.1-0.047-0.217-0.111-0.331-0.181c-0.098-0.057-0.208-0.129-0.318-0.211
	c-0.101-0.075-0.203-0.16-0.304-0.252c-0.828-0.737-1.316-1.819-1.321-2.953c0-17.395-12.531-28.917-35.299-32.472l-58.111,13.99
	c-3.188,0.772-6.472,1.167-9.756,1.172c-1.331,0-2.651-0.066-3.956-0.196c-3.899-0.283-7.728-1.155-11.38-2.596
	c-0.461,3.054-0.731,7.852,1.367,10.786c1.516,2.122,4.214,3.153,8.249,3.153h20.575c1.768,0,3.351,1.186,3.85,2.883
	c0.462,1.569,11.726,38.478,45.81,38.477c1.964,0,3.995-0.124,6.037-0.368c0.161-0.02,0.321-0.029,0.48-0.029
	c2.026,0,3.737,1.519,3.98,3.533c0.262,2.196-1.311,4.197-3.505,4.462c-1.728,0.204-3.483,0.332-5.232,0.382
	c-6.05,12.579-15.508,23.083-27.401,30.418c-14.324,8.941-29.63,13.67-44.255,13.67c-8.171,0-16.122-1.449-23.63-4.307
	c-15.668-6.025-28.456-17.525-36.101-32.436H132.696z M165.963,367.622c-0.828-3.509-3.964-6.081-7.704-6.082h-30.963
	c-3.614,0.125-6.616,2.654-7.425,6.074L165.963,367.622z M150.28,353.515c-0.866-2.606-1.447-5.784-1.734-9.488
	c-0.666,0.038-1.306,0.058-1.916,0.058c-1.288,0-2.513-0.071-3.709-0.21h-0.185c-1.228,0.136-2.476,0.205-3.711,0.205
	c-0.573,0-1.149-0.015-1.724-0.044c-0.289,3.701-0.87,6.876-1.736,9.479H150.28z M143.596,336.056l0.071,0.009
	c0.116,0.014,1.194-0.036,2.801-0.036c15.385-0.001,19.937-9.264,21.281-14.786c3.565-14.646,1.133-23.178-7.166-44.325
	l-0.339-0.864c-3.325-8.475-10.095-14.584-16.811-16.481c-0.406-0.115-0.826-0.174-1.247-0.174s-0.84,0.059-1.246,0.174
	c-6.72,1.896-12.812,7.396-16.137,15.867l-0.001-0.001c-8.514,21.684-10.255,31.162-6.698,45.797
	c1.342,5.521,5.877,14.785,21.168,14.785c1.466,0,2.475,0.07,2.753,0.037l0.381,0.037L143.596,336.056z M329.643,321.401
	c4.294,0.299,8.553,0.45,12.677,0.45c25.491,0,46.163-5.532,61.454-16.445c1.968-8.706,3.147-17.637,3.507-26.556l0.02-0.304
	c0.209-4.682,0.183-9.462-0.078-14.235c-0.184-3.097-0.404-5.778-0.676-8.193c-0.114-1.108-0.225-2.179-0.372-3.237
	c-1.271-10.403-3.652-20.677-7.079-30.559c-0.353-1.066-0.719-2.055-1.088-3.037c-1.838-4.935-3.978-9.808-6.36-14.487
	c-1.038-2.09-2.129-4.126-3.341-6.236c-3.901-6.829-8.381-13.398-13.314-19.529c-2.914-3.583-5.95-7.016-9.021-10.198
	c-2.059-2.139-4.236-4.278-6.494-6.377c-7.408,15.482-31.469,58.477-76.606,75.517c-8.604,3.295-16.177,8.863-21.89,16.101
	c-3.424,4.299-6.754,8.868-9.899,13.587c-3.219,4.83-7.53,7.079-13.566,7.079c-2.688,0-5.433-0.429-8.086-0.843
	c-2.766-0.433-5.625-0.88-8.415-0.88c-10.389,0-15.964,6.988-20.048,13.824c-0.465,0.777-1.872,3.527-0.475,6.309
	c1.686,3.346,7.141,5.711,14.964,6.486c1.046,0.1,2.115,0.151,3.17,0.151c2.648,0,5.295-0.317,7.868-0.944l58.887-14.176
	c0.305-0.073,0.618-0.11,0.931-0.11c0.175,0,0.35,0.012,0.522,0.035l0.004-0.007l1.005,0.159
	C312.79,288.701,327.947,302.027,329.643,321.401z M140.504,217.393c7.515,7.791,24.946,22.817,49.79,25.736
	c2.814,0.331,5.681,0.498,8.52,0.498c20.493,0,41.625-8.613,62.812-25.598l0.105-0.083c0.691-0.535,1.54-0.826,2.437-0.826
	c1.251,0,2.408,0.567,3.173,1.556c0.656,0.847,0.943,1.898,0.809,2.962c-0.136,1.063-0.677,2.01-1.523,2.667l-0.099,0.076
	c-1.927,1.541-3.951,3.08-6.164,4.687l5.167,9.464c4.426-3.37,9.298-6.079,14.505-8.063c44.445-16.779,67.885-62.2,73.159-73.567
	c-15.699-13.216-33.375-23.595-52.565-30.865c-6.372,4.513-13.04,8.754-19.828,12.613l-0.087,0.049
	c-0.601,0.327-1.263,0.496-1.93,0.496c-1.472,0-2.822-0.802-3.525-2.094c-1.059-1.942-0.339-4.383,1.604-5.442
	c16.714-9.479,35.022-23.13,35.604-28.328l0.004-0.038c-13.205-12.018-33.982-27.875-62.839-27.875
	c-11.53,0-23.65,2.546-36.025,7.568c-17.745,7.208-105.708,46.728-94.653,117.122c1.165,6.821,6.989,11.808,13.899,11.934
	c2.584-1.426,10.363-5.118,21.506-5.118c9.193,0,18.578,2.457,27.891,7.303c9.023,4.695,18.109,7.177,26.276,7.177
	c4.354,0,8.442-0.695,12.153-2.064c6.725-2.35,12.122-7.456,14.831-14.017c0.612-1.515,2.073-2.5,3.717-2.5
	c0.516,0,1.022,0.099,1.503,0.293c0.993,0.401,1.771,1.166,2.19,2.152c0.418,0.987,0.428,2.078,0.026,3.071
	c-3.562,8.676-10.672,15.431-19.513,18.54c-4.681,1.691-9.59,2.55-14.581,2.55l-0.324-0.001c-9.453,0-19.825-2.793-29.985-8.079
	c-8.086-4.208-16.208-6.342-24.139-6.342C148.502,215.008,143.801,216.176,140.504,217.393z M161.946,93.647
	c-0.924,0-1.861,0.038-2.782,0.112c-19.062,1.539-33.318,18.298-31.779,37.36c0.118,1.479,0.335,2.951,0.647,4.403
	c10.561-14.534,25.522-28.035,44.545-40.193c-2.535-0.83-5.157-1.357-7.827-1.572c-0.925-0.073-1.863-0.11-2.785-0.11H161.946z
	 M200.519,196.337c-1.13,0-2.282-0.046-3.42-0.136c-23.453-1.916-40.973-22.552-39.057-46.001
	c1.795-21.98,20.455-39.198,42.481-39.198c1.167,0,2.351,0.048,3.519,0.144c22.002,1.798,39.218,20.499,39.192,42.574
	c-0.027,23.5-19.167,42.618-42.664,42.618C200.568,196.337,200.519,196.337,200.519,196.337z M200.59,119.032
	c-17.891,0-33.058,13.967-34.527,31.798c-0.76,9.223,2.117,18.189,8.1,25.248c5.984,7.059,14.358,11.365,23.581,12.125
	c0.908,0.071,1.834,0.107,2.746,0.107c17.815,0,32.962-13.922,34.482-31.696c0.789-9.221-2.061-18.197-8.023-25.274
	c-5.962-7.078-14.324-11.41-23.545-12.198c-0.924-0.073-1.861-0.111-2.777-0.111H200.59z M197.714,164.313
	c2.111,0,4.15-0.473,6.062-1.406c3.324-1.622,5.816-4.441,7.019-7.938c1.203-3.497,0.972-7.253-0.65-10.577
	c-1.347-2.76-3.609-5.022-6.369-6.369l-0.785-0.383l0.288,0.826c0.519,1.489,0.427,3.091-0.259,4.511
	c-0.686,1.42-1.884,2.488-3.373,3.007c-0.629,0.219-1.283,0.331-1.943,0.331c-2.508,0-4.749-1.592-5.575-3.963
	c-0.437-1.253-0.437-2.633,0-3.886l0.288-0.826l-0.785,0.383c-6.861,3.349-9.718,11.654-6.37,18.515
	c2.341,4.795,7.112,7.775,12.452,7.775C197.714,164.313,197.714,164.313,197.714,164.313z"/>
</svg>
