<svg xmlns="http://www.w3.org/2000/svg" width="512" height="512" viewBox="0 0 512 512">
  <title>icons</title>
  <g>
    <path d="M407.794,263.934c-.187-3.19-.418-5.99-.7-8.536-.118-1.15-.238-2.3-.392-3.4a154.162,154.162,0,0,0-7.374-31.814c-.359-1.087-.756-2.161-1.153-3.222a144.893,144.893,0,0,0-6.65-15.146c-1.081-2.172-2.228-4.312-3.5-6.534a155.763,155.763,0,0,0-13.906-20.393c-3.021-3.718-6.184-7.3-9.4-10.628-3.417-3.553-7.1-7.058-10.953-10.417a188.4,188.4,0,0,0-54.451-33.125c7.174-5.687,13.155-11.792,13.7-16.658a6.4,6.4,0,0,0-2.122-5.648c-32.929-30-67.523-37.048-105.755-21.53a239.649,239.649,0,0,0-30.064,14.935,40.494,40.494,0,0,0-15.8-4.628,41.268,41.268,0,0,0-44.448,44.448,40.369,40.369,0,0,0,3.127,12.652c-9.654,16.109-14.923,35.049-11.5,56.835a20.994,20.994,0,0,0,20.266,17.5c4.253,5.061,24.544,27.218,56.747,31.03a79.829,79.829,0,0,0,9.387.554c18.247,0,36.8-6.255,55.387-18.625l6.872,12.59a59.74,59.74,0,0,0-5.28,5.8c-3.538,4.44-6.977,9.161-10.223,14.032-3.319,4.977-7.481,4.58-15.159,3.383-9.855-1.538-23.353-3.646-35.131,16.075a13.1,13.1,0,0,0-.7,12.641,13.424,13.424,0,0,0,3.01,3.885c-1.029,3.859-2.858,13.284,1.663,19.627,2.8,3.93,7.381,5.921,13.615,5.921h18.733c2.855,7.871,15.836,38.213,46.72,41.115a66.284,66.284,0,0,1-24.339,26.471c-26.671,16.646-48.47,13.975-62.065,8.8A61.453,61.453,0,0,1,154.179,374.2h7.837a4.75,4.75,0,0,0,4.746-4.745,14.5,14.5,0,0,0-14.5-14.5h-.541a4.868,4.868,0,0,0-.48-1.738c-1.568-3.2-2.088-8.067-2.249-11.61,7.985-1.99,16.333-7.233,19.152-18.814,4.017-16.5.939-40.967-8.032-63.838-4.083-10.407-11.423-17.789-20.139-20.253a11.17,11.17,0,0,0-6.071,0c-8.715,2.46-16.057,9.839-20.144,20.246-8.979,22.869-12.064,47.329-8.052,63.836,2.824,11.618,11.177,16.868,19.144,18.844-.163,3.541-.686,8.391-2.25,11.584a4.877,4.877,0,0,0-.482,1.738h-.543a14.5,14.5,0,0,0-14.5,14.5,4.754,4.754,0,0,0,4.744,4.747h7.863c8.405,47.779,54.325,62.457,54.818,62.609l.128.035a204.977,204.977,0,0,0,50,6.258,190.729,190.729,0,0,0,94.888-24.927c40.428-23.093,70.473-60.453,82.431-102.5.71-2.474,1.351-4.938,1.908-7.318a153.884,153.884,0,0,0,4-29.187c.012-.142.017-.288.018-.414C408.094,273.9,408.067,268.913,407.794,263.934ZM224.729,438.022a200.04,200.04,0,0,1-48.769-6.148c-1.754-.566-42.854-14.381-51.021-57.674l23.455,0a66.558,66.558,0,0,0,35.727,32.53c20.755,7.9,44.413,4.618,66.617-9.243a71.379,71.379,0,0,0,27.236-30.613,57.268,57.268,0,0,0,5.982-.391,2.571,2.571,0,0,0-.613-5.106c-40,4.783-52.871-37.336-53.4-39.133a2.574,2.574,0,0,0-2.468-1.848H206.9c-4.533,0-7.615-1.229-9.42-3.755-2.612-3.653-2.129-9.652-1.295-13.65a37.443,37.443,0,0,0,12.622,3.189q1.9.189,3.811.188a40.172,40.172,0,0,0,9.421-1.132l58.388-14.056c23.754,3.629,36.8,15.616,36.8,33.932a2.555,2.555,0,0,0,.856,1.9c.062.056.125.109.192.159s.134.093.205.135a2.384,2.384,0,0,0,.217.118,2.471,2.471,0,0,0,.238.1,2.308,2.308,0,0,0,.232.072,2.356,2.356,0,0,0,.266.051c.048.007.092.023.141.027,5.189.456,10.829.75,16.737.75,19.638,0,42.206-3.289,60.854-14.755-.056.2-.1.394-.162.592C378.32,379.956,310.569,438.026,224.729,438.022ZM121.577,360.1h0l30.683,0a9.359,9.359,0,0,1,9.348,8.962l-49.382-.008a9.359,9.359,0,0,1,9.349-8.959Zm-3.029-99.266c3.493-8.9,9.6-15.156,16.753-17.175a6.007,6.007,0,0,1,3.276,0c7.154,2.021,13.258,8.284,16.749,17.181,8.474,21.6,11.545,45.448,7.822,60.743-4.424,18.173-24.781,15.841-25.646,15.733l-1.125-.027-.172.022c-.858.1-21.082,2.435-25.5-15.737C106.987,306.274,110.066,282.432,118.548,260.829Zm18.132,81.6.325,0a30.137,30.137,0,0,0,3.625.21c1.033,0,2.13-.058,3.257-.164.216,3.935.841,8.786,2.49,12.475l-9.455,0h-9.456c1.648-3.684,2.275-8.529,2.493-12.462A32.181,32.181,0,0,0,136.68,342.431Zm57.05-56.326c10-16.741,20.124-15.162,29.921-13.63,7.345,1.148,14.937,2.332,20.232-5.612,3.167-4.75,6.52-9.353,9.967-13.68a52.683,52.683,0,0,1,22.512-16.556c46.747-17.648,70.716-63.677,76.645-76.558,2.788,2.534,5.469,5.135,8,7.765,3.118,3.232,6.183,6.7,9.106,10.295a150.691,150.691,0,0,1,13.442,19.714c1.227,2.138,2.326,4.188,3.375,6.3a139.7,139.7,0,0,1,6.425,14.634c.375,1,.749,2.006,1.1,3.071a149.426,149.426,0,0,1,7.146,30.832c.149,1.075.261,2.163.376,3.275.278,2.476.5,5.187.682,8.275.264,4.817.29,9.645.077,14.351l0,.056-.017.268a148.8,148.8,0,0,1-3.662,27.349c-22.825,16.553-53.851,18.233-76.761,16.49-1.1-19.455-15.737-32.625-40.679-36.576l-.079.146a2.541,2.541,0,0,0-1.82-.245l-58.884,14.175a34.709,34.709,0,0,1-11.521.826c-8.445-.836-14.166-3.418-16.109-7.272C191.479,290.365,193.171,287.042,193.73,286.105Zm66.013-62.942a2.572,2.572,0,1,0-3.217-4.013c-24.481,19.626-48.837,28.172-72.4,25.406-27.446-3.225-46.152-21.2-52.111-27.713,5.916-2.61,21.206-7.173,41.19,3.226,10.082,5.245,20.113,7.916,29.331,7.916a41.51,41.51,0,0,0,14.417-2.467A31.441,31.441,0,0,0,235.609,207.8a2.572,2.572,0,0,0-4.77-1.928,26.347,26.347,0,0,1-15.663,14.819c-11.176,4.125-25.237,2.284-39.592-5.186-25.794-13.421-44.542-4.213-48.36-2.02h-.1a15.814,15.814,0,0,1-15.594-13.153c-11.228-71.5,77.612-111.4,95.534-118.679,48.241-19.578,80.379,2.362,100.359,20.566a1.311,1.311,0,0,1,.473,1.273c-.727,6.5-21.692,21.122-36.345,29.432a2.572,2.572,0,1,0,2.537,4.474,235.038,235.038,0,0,0,20.33-12.979,182.9,182.9,0,0,1,54.539,32.089c-4.334,9.61-28.039,57.8-74.41,75.306a56.678,56.678,0,0,0-15.467,8.9l-6.162-11.287c-.031-.241-.072-.58-.12-1.006C255.113,226.756,257.428,225.019,259.743,223.163ZM119.949,131.235a36.122,36.122,0,0,1,36.016-39.028q1.443,0,2.9.115A35.336,35.336,0,0,1,169.8,95c-16.757,10.419-35.458,25.044-48.374,43.878A35.227,35.227,0,0,1,119.949,131.235Z" fill="#fff"/>
    <path d="M197.925,112.58a41.229,41.229,0,0,0-6.712,82.185q1.658.132,3.307.132a41.227,41.227,0,0,0,3.405-82.317Zm-6.3,77.058a36.084,36.084,0,0,1,3-72.046q1.444,0,2.9.116a36.086,36.086,0,0,1-5.9,71.93Z" fill="#fff"/>
    <path d="M197.618,138.347a6.264,6.264,0,1,1-11.83,0,13.485,13.485,0,1,0,11.83,0Z" fill="#fff"/>
  </g>
</svg>
