<svg xmlns="http://www.w3.org/2000/svg" width="512" height="512" viewBox="0 0 512 512">
  <title>icons</title>
  <g>
    <path d="M389.347,268.643c-.146-2.481-.326-4.659-.548-6.638-.092-.895-.185-1.788-.3-2.641a119.865,119.865,0,0,0-5.734-24.74c-.28-.846-.588-1.681-.9-2.506a112.567,112.567,0,0,0-5.172-11.779c-.84-1.689-1.732-3.353-2.724-5.081A121.219,121.219,0,0,0,363.152,199.4c-2.349-2.891-4.809-5.673-7.31-8.265-2.657-2.763-5.523-5.489-8.518-8.1a146.478,146.478,0,0,0-42.345-25.76c5.58-4.423,10.231-9.171,10.655-12.955a4.979,4.979,0,0,0-1.651-4.392c-25.608-23.333-52.51-28.811-82.243-16.743A186.426,186.426,0,0,0,208.361,134.8a31.5,31.5,0,0,0-12.284-3.6,32.092,32.092,0,0,0-34.566,34.566,31.357,31.357,0,0,0,2.432,9.839c-7.508,12.528-11.605,27.257-8.944,44.2a16.326,16.326,0,0,0,15.76,13.606c3.307,3.936,19.087,21.167,44.131,24.131a62.063,62.063,0,0,0,7.3.431c14.19,0,28.619-4.864,43.073-14.484l5.344,9.791a46.525,46.525,0,0,0-4.106,4.513c-2.751,3.452-5.426,7.124-7.95,10.912-2.581,3.87-5.818,3.562-11.789,2.631-7.664-1.2-18.161-2.836-27.32,12.5a10.182,10.182,0,0,0-.544,9.83,10.441,10.441,0,0,0,2.34,3.022c-.8,3-2.222,10.33,1.294,15.263,2.177,3.056,5.74,4.6,10.588,4.6h14.568c2.22,6.121,12.315,29.717,36.332,31.973a51.535,51.535,0,0,1-18.927,20.586c-20.741,12.946-37.694,10.868-48.266,6.842A47.789,47.789,0,0,1,192.117,354.4h6.095a3.7,3.7,0,0,0,3.691-3.69,11.277,11.277,0,0,0-11.275-11.278h-.42a3.8,3.8,0,0,0-.374-1.352c-1.219-2.49-1.624-6.273-1.749-9.028,6.21-1.548,12.7-5.625,14.894-14.632,3.124-12.835.73-31.858-6.246-49.645-3.175-8.093-8.883-13.834-15.661-15.75a8.683,8.683,0,0,0-4.721,0c-6.778,1.913-12.488,7.652-15.666,15.745-6.983,17.785-9.382,36.806-6.262,49.643,2.2,9.036,8.692,13.118,14.888,14.655-.127,2.753-.533,6.526-1.75,9.008a3.8,3.8,0,0,0-.375,1.352h-.422A11.279,11.279,0,0,0,155.487,350.7a3.7,3.7,0,0,0,3.69,3.692h6.115c6.536,37.156,42.247,48.571,42.63,48.689l.1.027a159.412,159.412,0,0,0,38.885,4.867A148.321,148.321,0,0,0,320.7,388.591c31.44-17.959,54.805-47.013,64.105-79.71.551-1.924,1.051-3.84,1.483-5.691a119.6,119.6,0,0,0,3.11-22.7c.009-.11.013-.223.014-.322C389.58,276.391,389.559,272.515,389.347,268.643ZM246.982,404.026a155.573,155.573,0,0,1-37.926-4.781c-1.364-.44-33.327-11.184-39.677-44.852l18.24,0a51.758,51.758,0,0,0,27.784,25.3c16.14,6.145,34.538,3.592,51.806-7.187a55.515,55.515,0,0,0,21.18-23.808,44.387,44.387,0,0,0,4.652-.3,2,2,0,0,0-.477-3.971c-31.1,3.72-41.116-29.035-41.526-30.433a2,2,0,0,0-1.919-1.437h-16c-3.526,0-5.922-.955-7.326-2.92-2.031-2.841-1.656-7.506-1.007-10.615a29.118,29.118,0,0,0,9.816,2.48q1.476.147,2.963.146a31.264,31.264,0,0,0,7.327-.88L290.3,289.834c18.472,2.822,28.618,12.144,28.618,26.388a1.988,1.988,0,0,0,.665,1.479c.048.044.1.085.15.124a1.9,1.9,0,0,0,.159.105c.055.033.111.064.169.092a1.994,1.994,0,0,0,.185.076c.059.021.119.04.181.056a1.972,1.972,0,0,0,.206.039c.038,0,.072.018.11.021,4.035.354,8.421.583,13.016.583,15.272,0,32.822-2.558,47.324-11.475-.043.155-.082.307-.126.461C366.426,358.87,313.737,404.029,246.982,404.026Zm-80.218-60.6h0l23.862,0A7.278,7.278,0,0,1,197.9,350.4l-38.4,0a7.279,7.279,0,0,1,7.27-6.967Zm-2.355-77.2c2.716-6.918,7.465-11.787,13.028-13.357a4.67,4.67,0,0,1,2.547,0c5.563,1.572,10.311,6.442,13.025,13.361,6.591,16.8,8.979,35.344,6.084,47.239-3.441,14.132-19.272,12.319-19.945,12.235l-.875-.021-.133.017c-.668.081-16.395,1.894-19.83-12.238C155.418,301.569,157.812,283.028,164.409,266.229Zm14.1,63.459.253,0a23.3,23.3,0,0,0,2.819.164c.8,0,1.656-.045,2.533-.127a29.057,29.057,0,0,0,1.936,9.7H171.344a29.068,29.068,0,0,0,1.938-9.692A24.983,24.983,0,0,0,178.509,329.688Zm44.366-43.8c7.773-13.02,15.65-11.791,23.269-10.6,5.712.893,11.616,1.814,15.734-4.364,2.463-3.694,5.07-7.274,7.751-10.639a40.969,40.969,0,0,1,17.507-12.875c36.354-13.725,54.993-49.52,59.6-59.537,2.168,1.971,4.254,3.993,6.221,6.039,2.425,2.513,4.809,5.209,7.081,8.006A117.2,117.2,0,0,1,370.5,217.246c.954,1.662,1.809,3.257,2.624,4.9a108.47,108.47,0,0,1,5,11.379c.291.776.582,1.561.856,2.389a116.167,116.167,0,0,1,5.556,23.977c.117.836.2,1.682.293,2.547.216,1.925.39,4.034.531,6.435.2,3.746.225,7.5.059,11.16l0,.044-.013.208a115.742,115.742,0,0,1-2.847,21.269c-17.751,12.873-41.879,14.179-59.695,12.824-.852-15.13-12.239-25.372-31.636-28.444l-.061.113a1.972,1.972,0,0,0-1.415-.19l-45.792,11.023a26.993,26.993,0,0,1-8.96.643c-6.568-.651-11.017-2.659-12.527-5.656A6.349,6.349,0,0,1,222.875,285.885Zm51.337-48.948a2,2,0,0,0-2.5-3.122c-19.039,15.263-37.98,21.909-56.3,19.758-21.343-2.508-35.89-16.486-40.525-21.551,4.6-2.03,16.492-5.579,32.033,2.508,7.84,4.079,15.641,6.156,22.809,6.156a32.268,32.268,0,0,0,11.212-1.918,24.452,24.452,0,0,0,14.505-13.778,2,2,0,1,0-3.709-1.5,20.493,20.493,0,0,1-12.181,11.524c-8.691,3.208-19.626,1.776-30.79-4.034-20.059-10.436-34.639-3.276-37.608-1.57h-.078a12.3,12.3,0,0,1-12.127-10.229c-8.732-55.6,60.356-86.636,74.294-92.293,37.516-15.225,62.508,1.837,78.046,15.994a1.019,1.019,0,0,1,.368.99c-.565,5.052-16.869,16.425-28.264,22.888a2,2,0,1,0,1.972,3.479,182.643,182.643,0,0,0,15.81-10.093A142.2,142.2,0,0,1,343.59,185.1c-3.371,7.474-21.8,44.949-57.866,58.564a44.064,44.064,0,0,0-12.029,6.921l-4.792-8.777c-.024-.188-.056-.452-.093-.783C270.611,239.731,272.411,238.38,274.212,236.937ZM165.5,165.447A28.091,28.091,0,0,1,193.506,135.1q1.124,0,2.253.09a27.443,27.443,0,0,1,8.507,2.082c-13.031,8.1-27.574,19.476-37.619,34.122A27.358,27.358,0,0,1,165.5,165.447Z"/>
    <path d="M226.137,150.939a32.063,32.063,0,0,0-5.219,63.913q1.288.1,2.572.1a32.061,32.061,0,0,0,2.647-64.016Zm-4.9,59.926a28.062,28.062,0,0,1,2.332-56.028q1.122,0,2.253.09a28.063,28.063,0,0,1-4.585,55.938Z"/>
    <path d="M225.9,170.977a4.871,4.871,0,1,1-9.2,0,10.486,10.486,0,1,0,9.2,0Z"/>
  </g>
</svg>
